<?xml version="1.0" encoding="UTF-8"?>
<!-- Created with Grafika (https://www.grafika.cc/) -->
<svg xmlns="http://www.w3.org/2000/svg" xmlns:svg="http://www.w3.org/2000/svg" xmlns:xlink="http://www.w3.org/1999/xlink" width="2048" height="717.32" viewBox="0 0 390.94 136.93" preserveAspectRatio="xMidYMid meet">
	<defs>
		<clipPath id="mask_1">
			<rect x="-195.47" y="-68.46" width="390.94" height="136.93" />
		</clipPath>
	</defs>
	<g transform="matrix(1, 0, 0, 1, 201.33718872070312, 106.4364013671875)">
		<g transform="matrix(1, 0, 0, 1, -5.8671875, -37.97178649902344)" clip-path="url(#mask_1)">
			<g transform="matrix(1, 0, 0, 1, -195.47000122070312, -68.46461486816406)">
				<path d="M1.26,165.75 L0,172.9 L9.09,172.9 L4.51,198.89 L12.51,198.89 L17.09,172.9 L26.22,172.9 L27.48,165.75 L1.26,165.75 L1.26,165.75 Z" style="fill:#2A7221;" />
				<path d="M51.95,167.13 C50.22,166.21 47.93,165.76 45.09,165.76 L33.02,165.76 L27.18,198.89 L35.18,198.89 L37.21,187.39 L39.66,187.39 L44.74,198.89 L54.11,198.89 L47.68,186.39 C48,186.27 48.32,186.15 48.62,186.02 C50.67,185.1 52.33,183.83 53.6,182.21 C54.86,180.58 55.68,178.71 56.06,176.6 C56.44,174.45 56.28,172.57 55.59,170.94 C54.9,169.31 53.69,168.04 51.95,167.13 L51.95,167.13 ZM47.72,176.88 C47.56,177.8 47.22,178.58 46.69,179.22 C46.17,179.87 45.49,180.36 44.66,180.69 C43.83,181.02 42.88,181.19 41.8,181.19 L38.3,181.19 L39.83,172.53 L43.33,172.53 C44.4,172.53 45.29,172.7 46.01,173.05 C46.72,173.4 47.23,173.89 47.52,174.54 C47.82,175.19 47.88,175.97 47.72,176.88 L47.72,176.88 Z" style="fill:#2A7221;" />
				<path d="M70.84,165.75 L65.54,165.75 L59.69,198.89 L81.7,198.89 L82.86,192.31 L68.52,192.31 L69.87,184.69 L83.26,184.69 L84.4,178.25 L71,178.25 L72.04,172.33 L86.39,172.33 L87.55,165.75 L70.84,165.75 L70.84,165.75 Z" style="fill:#2A7221;" />
				<path d="M101.27,165.75 L95.97,165.75 L90.13,198.89 L112.14,198.89 L113.3,192.31 L98.96,192.31 L100.3,184.69 L113.7,184.69 L114.83,178.25 L101.44,178.25 L102.48,172.33 L116.82,172.33 L117.98,165.75 L101.27,165.75 L101.27,165.75 Z" style="fill:#2A7221;" />
				<path d="M150.7,172.4 C151.39,171.91 152.3,171.67 153.43,171.67 C154.28,171.67 155.05,171.84 155.73,172.17 C156.41,172.5 157.01,172.96 157.52,173.54 C158.03,174.13 158.46,174.81 158.79,175.6 L165.5,172.19 C165.13,171.05 164.51,169.93 163.63,168.83 C162.75,167.73 161.56,166.81 160.07,166.08 C158.57,165.36 156.72,164.99 154.51,164.99 C152.3,164.99 150.35,165.36 148.47,166.1 C146.59,166.84 145.01,167.92 143.73,169.34 C142.45,170.76 141.64,172.45 141.3,174.4 C141.01,176.04 141.06,177.44 141.46,178.59 C141.86,179.74 142.44,180.72 143.21,181.52 C143.98,182.33 144.84,182.98 145.77,183.49 C146.71,183.99 147.54,184.39 148.28,184.67 C149.78,185.27 150.98,185.81 151.88,186.28 C152.77,186.75 153.4,187.25 153.75,187.77 C154.1,188.29 154.2,188.98 154.05,189.83 C153.87,190.84 153.35,191.64 152.49,192.22 C151.63,192.8 150.62,193.1 149.45,193.1 C148.35,193.1 147.34,192.86 146.43,192.39 C145.52,191.92 144.72,191.24 144.04,190.35 C143.36,189.47 142.79,188.43 142.34,187.23 L136.05,191.25 C136.53,192.83 137.33,194.28 138.45,195.6 C139.57,196.93 140.99,197.97 142.7,198.75 C144.41,199.52 146.34,199.91 148.48,199.91 C150.03,199.91 151.57,199.68 153.12,199.22 C154.67,198.76 156.1,198.09 157.4,197.21 C158.71,196.33 159.82,195.23 160.73,193.92 C161.64,192.61 162.24,191.12 162.54,189.45 C162.78,188.06 162.78,186.83 162.53,185.76 C162.28,184.69 161.84,183.74 161.21,182.92 C160.58,182.1 159.81,181.4 158.91,180.81 C158,180.23 157,179.71 155.92,179.27 C154.47,178.73 153.24,178.23 152.23,177.75 C151.22,177.28 150.48,176.76 150,176.19 C149.52,175.62 149.34,174.96 149.47,174.2 C149.6,173.47 150,172.87 150.69,172.38 L150.7,172.4 Z" style="fill:#2A7221;" />
				<path d="M179.28,165.75 L173.98,165.75 L168.13,198.89 L190.14,198.89 L191.3,192.31 L176.96,192.31 L178.31,184.69 L191.7,184.69 L192.84,178.25 L179.44,178.25 L180.48,172.33 L194.83,172.33 L195.99,165.75 L179.28,165.75 L179.28,165.75 Z" style="fill:#2A7221;" />
				<path d="M223.34,167.13 C221.61,166.21 219.32,165.76 216.48,165.76 L204.41,165.76 L198.57,198.89 L206.57,198.89 L208.6,187.39 L211.05,187.39 L216.13,198.89 L225.5,198.89 L219.07,186.39 C219.39,186.27 219.71,186.15 220.01,186.02 C222.06,185.1 223.72,183.83 224.99,182.21 C226.25,180.58 227.07,178.71 227.45,176.6 C227.83,174.45 227.67,172.57 226.98,170.94 C226.29,169.31 225.08,168.04 223.34,167.13 L223.34,167.13 ZM219.11,176.88 C218.95,177.8 218.61,178.58 218.08,179.22 C217.56,179.87 216.88,180.36 216.05,180.69 C215.22,181.02 214.27,181.19 213.19,181.19 L209.69,181.19 L211.22,172.53 L214.72,172.53 C215.79,172.53 216.68,172.7 217.4,173.05 C218.11,173.4 218.62,173.89 218.91,174.54 C219.21,175.19 219.27,175.97 219.11,176.88 L219.11,176.88 Z" style="fill:#2A7221;" />
				<path d="M258.89,165.75 L247.31,185.54 L242.7,165.75 L233.38,165.75 L244.59,200.97 L268.26,165.75 L258.89,165.75 L258.89,165.75 Z" style="fill:#2A7221;" />
				<path d="M267.77,198.89 L275.91,198.89 L281.75,165.75 L273.61,165.75 L267.77,198.89 L267.77,198.89 Z" style="fill:#2A7221;" />
				<path d="M307.07,165 C304.42,165 301.9,165.41 299.52,166.23 C297.13,167.05 295,168.23 293.12,169.78 C291.24,171.33 289.67,173.16 288.41,175.27 C287.15,177.38 286.3,179.74 285.84,182.32 C285.38,184.91 285.41,187.26 285.92,189.37 C286.43,191.48 287.35,193.32 288.69,194.86 C290.03,196.41 291.74,197.59 293.84,198.41 C295.94,199.23 298.31,199.64 300.96,199.64 C303.39,199.64 305.45,199.34 307.13,198.74 C308.81,198.14 310.41,197.32 311.92,196.28 L313.44,187.67 C312.58,188.43 311.62,189.14 310.56,189.8 C309.5,190.46 308.33,191 307.06,191.41 C305.79,191.82 304.36,192.03 302.79,192.03 C300.99,192.03 299.41,191.65 298.04,190.89 C296.67,190.13 295.66,189.02 295.01,187.55 C294.35,186.08 294.2,184.34 294.56,182.32 C294.92,180.27 295.69,178.52 296.86,177.07 C298.03,175.62 299.43,174.51 301.07,173.76 C302.7,173 304.42,172.62 306.22,172.62 C307.8,172.62 309.15,172.82 310.28,173.21 C311.41,173.61 312.39,174.14 313.22,174.82 C314.05,175.5 314.76,176.22 315.35,176.97 L316.87,168.35 C315.73,167.31 314.42,166.49 312.95,165.89 C311.48,165.29 309.53,164.99 307.1,164.99 L307.07,165 Z" style="fill:#2A7221;" />
				<path d="M346.57,172.33 L347.73,165.75 L325.72,165.75 L319.88,198.89 L341.89,198.89 L343.05,192.31 L328.71,192.31 L330.05,184.69 L343.45,184.69 L344.58,178.25 L331.19,178.25 L332.23,172.33 L346.57,172.33 L346.57,172.33 Z" style="fill:#2A7221;" />
				<path d="M170.67,137.53 C160.18,137.53 153.24,135.04 150.02,130.13 C146.78,125.19 145.96,118.04 147.58,108.87 L156.52,58.15 L190.42,58.15 L182.08,105.45 C181.44,109.06 181.47,111.94 182.17,114.01 C182.91,116.21 185.13,117.32 188.77,117.32 C190.91,117.32 192.84,116.89 194.49,116.05 C196.16,115.2 197.6,113.87 198.76,112.12 C199.9,110.39 200.71,108.15 201.19,105.45 L209.53,58.15 L241.71,58.15 L228.04,135.65 L195.86,135.65 L198.22,122.26 L196.73,124.5 C193.94,128.38 190.37,131.56 186.12,133.95 C181.88,136.33 176.68,137.54 170.66,137.54 L170.67,137.53 Z" style="fill:#2A7221;" />
				<path d="M310.3,135.65 L319.5,83.49 L288.58,83.49 L279.38,135.65 L248.91,135.65 L258.11,83.49 L246.99,83.49 L251.46,58.15 L262.58,58.15 L267.81,28.49 C268.79,22.92 270.88,17.95 274.01,13.73 C277.13,9.52 281.41,6.15 286.73,3.7 C292.08,1.24 298.6,-0 306.11,-0 C310.8,-0 314.72,0.56 317.77,1.68 C320.82,2.8 323.32,4.13 325.23,5.63 C326.99,7.01 328.44,8.25 329.57,9.32 L314.06,31.77 C313.25,30.75 312.38,29.89 311.47,29.21 C310.33,28.35 308.89,27.92 307.19,27.92 C305.38,27.92 303.75,28.29 302.34,29.02 C300.91,29.76 299.68,30.91 298.68,32.44 C297.7,33.94 297.01,35.78 296.63,37.91 L293.06,58.16 L323.98,58.16 L329.21,28.5 C330.19,22.93 332.28,17.96 335.41,13.74 C338.53,9.53 342.81,6.16 348.13,3.71 C353.48,1.25 360,0.01 367.5,0.01 C372.19,0.01 376.12,0.57 379.16,1.69 C382.21,2.81 384.72,4.14 386.62,5.64 C388.38,7.03 389.83,8.27 390.96,9.33 L375.45,31.78 C374.64,30.76 373.77,29.9 372.86,29.22 C371.72,28.36 370.28,27.93 368.58,27.93 C366.78,27.93 365.15,28.3 363.74,29.03 C362.32,29.77 361.08,30.92 360.08,32.45 C359.1,33.95 358.41,35.79 358.03,37.92 L354.46,58.17 L374.13,58.17 L369.66,83.51 L349.99,83.51 L340.79,135.67 L310.32,135.67 L310.3,135.65 Z" style="fill:#2A7221;" />
				<path d="M7.4,135.65 L23.78,42.74 C25.32,34 22.89,25.03 17.14,18.27 L16.15,17.11 L83.97,17.11 C123.71,17.11 136.95,35.78 140.63,44.53 C144.31,53.29 145.61,64.01 143.42,76.38 C141.26,88.64 136.18,99.33 129.41,108.15 C126.4,112.06 122.91,115.66 119.01,118.84 L102.25,99.56 C108.4,93.35 112.55,85.58 113.95,77.63 C117.34,58.41 104.46,42.78 85.25,42.78 L50.4,42.78 L44.26,77.63 C40.87,96.85 53.75,112.48 72.96,112.48 C80.91,112.48 89.16,109.71 96.26,104.66 L110.74,124.6 C108.2,126.11 105.71,127.4 103.16,128.53 C92.47,133.26 80.08,135.66 66.33,135.66 L7.4,135.66 L7.4,135.65 Z" style="fill:#2A7221;" />
				<path d="M86.95,92.58 L65.95,90.86 L66.49,87.8 L82.3,86.54 L75.89,78.24 L59.33,76.52 L59.87,73.48 L71.33,72.33 L60.11,57.79 L63.23,55.14 L75.34,68.92 L78.48,57.66 L81.52,57.66 L80.27,74.52 L87.18,82.39 L91.18,66.8 L94.24,66.8 L92.2,88.11 L102.25,99.55 L101.85,99.97 C101.75,100.07 99.4,102.51 96.74,104.32 L96.26,104.65 L86.96,92.58 L86.95,92.58 Z" style="fill:#2A7221;" />
			</g>
		</g>
	</g>
</svg>