<?xml version="1.0" encoding="UTF-8"?><svg id="Layer_2" xmlns="http://www.w3.org/2000/svg" viewBox="0 0 390.94 200.97"><defs><style>.cls-1{fill:#2a7221;}</style></defs><g id="Layer_1-2"><polygon class="cls-1" points="1.26 165.75 0 172.9 9.09 172.9 4.51 198.89 12.51 198.89 17.09 172.9 26.22 172.9 27.48 165.75 1.26 165.75"/><path class="cls-1" d="M51.95,167.13c-1.73-.92-4.02-1.37-6.86-1.37h-12.07l-5.84,33.13h8l2.03-11.5h2.45l5.08,11.5h9.37l-6.43-12.5c.32-.12.64-.24.94-.37,2.05-.92,3.71-2.19,4.98-3.81,1.26-1.63,2.08-3.5,2.46-5.61.38-2.15.22-4.03-.47-5.66-.69-1.63-1.9-2.9-3.64-3.81ZM47.72,176.88c-.16.92-.5,1.7-1.03,2.34-.52.65-1.2,1.14-2.03,1.47-.83.33-1.78.5-2.86.5h-3.5l1.53-8.66h3.5c1.07,0,1.96.17,2.68.52.71.35,1.22.84,1.51,1.49.3.65.36,1.43.2,2.34Z"/><polygon class="cls-1" points="70.84 165.75 65.54 165.75 59.69 198.89 81.7 198.89 82.86 192.31 68.52 192.31 69.87 184.69 83.26 184.69 84.4 178.25 71 178.25 72.04 172.33 86.39 172.33 87.55 165.75 70.84 165.75"/><polygon class="cls-1" points="101.27 165.75 95.97 165.75 90.13 198.89 112.14 198.89 113.3 192.31 98.96 192.31 100.3 184.69 113.7 184.69 114.83 178.25 101.44 178.25 102.48 172.33 116.82 172.33 117.98 165.75 101.27 165.75"/><path class="cls-1" d="M150.7,172.4c.69-.49,1.6-.73,2.73-.73.85,0,1.62.17,2.3.5.68.33,1.28.79,1.79,1.37.51.59.94,1.27,1.27,2.06l6.71-3.41c-.37-1.14-.99-2.26-1.87-3.36-.88-1.1-2.07-2.02-3.56-2.75-1.5-.72-3.35-1.09-5.56-1.09s-4.16.37-6.04,1.11c-1.88.74-3.46,1.82-4.74,3.24-1.28,1.42-2.09,3.11-2.43,5.06-.29,1.64-.24,3.04.16,4.19.4,1.15.98,2.13,1.75,2.93.77.81,1.63,1.46,2.56,1.97.94.5,1.77.9,2.51,1.18,1.5.6,2.7,1.14,3.6,1.61.89.47,1.52.97,1.87,1.49.35.52.45,1.21.3,2.06-.18,1.01-.7,1.81-1.56,2.39s-1.87.88-3.04.88c-1.1,0-2.11-.24-3.02-.71-.91-.47-1.71-1.15-2.39-2.04-.68-.88-1.25-1.92-1.7-3.12l-6.29,4.02c.48,1.58,1.28,3.03,2.4,4.35,1.12,1.33,2.54,2.37,4.25,3.15,1.71.77,3.64,1.16,5.78,1.16,1.55,0,3.09-.23,4.64-.69,1.55-.46,2.98-1.13,4.28-2.01,1.31-.88,2.42-1.98,3.33-3.29.91-1.31,1.51-2.8,1.81-4.47.24-1.39.24-2.62-.01-3.69-.25-1.07-.69-2.02-1.32-2.84-.63-.82-1.4-1.52-2.3-2.11-.91-.58-1.91-1.1-2.99-1.54-1.45-.54-2.68-1.04-3.69-1.52-1.01-.47-1.75-.99-2.23-1.56-.48-.57-.66-1.23-.53-1.99.13-.73.53-1.33,1.22-1.82Z"/><polygon class="cls-1" points="179.28 165.75 173.98 165.75 168.13 198.89 190.14 198.89 191.3 192.31 176.96 192.31 178.31 184.69 191.7 184.69 192.84 178.25 179.44 178.25 180.48 172.33 194.83 172.33 195.99 165.75 179.28 165.75"/><path class="cls-1" d="M223.34,167.13c-1.73-.92-4.02-1.37-6.86-1.37h-12.07l-5.84,33.13h8l2.03-11.5h2.45l5.08,11.5h9.37l-6.43-12.5c.32-.12.64-.24.94-.37,2.05-.92,3.71-2.19,4.98-3.81,1.26-1.63,2.08-3.5,2.46-5.61.38-2.15.22-4.03-.47-5.66-.69-1.63-1.9-2.9-3.64-3.81ZM219.11,176.88c-.16.92-.5,1.7-1.03,2.34-.52.65-1.2,1.14-2.03,1.47-.83.33-1.78.5-2.86.5h-3.5l1.53-8.66h3.5c1.07,0,1.96.17,2.68.52.71.35,1.22.84,1.51,1.49.3.65.36,1.43.2,2.34Z"/><polygon class="cls-1" points="258.89 165.75 247.31 185.54 242.7 165.75 233.38 165.75 244.59 200.97 268.26 165.75 258.89 165.75"/><polygon class="cls-1" points="267.77 198.89 275.91 198.89 281.75 165.75 273.61 165.75 267.77 198.89"/><path class="cls-1" d="M307.07,165c-2.65,0-5.17.41-7.55,1.23-2.39.82-4.52,2-6.4,3.55-1.88,1.55-3.45,3.38-4.71,5.49-1.26,2.11-2.11,4.47-2.57,7.05-.46,2.59-.43,4.94.08,7.05.51,2.11,1.43,3.95,2.77,5.49,1.34,1.55,3.05,2.73,5.15,3.55,2.1.82,4.47,1.23,7.12,1.23,2.43,0,4.49-.3,6.17-.9,1.68-.6,3.28-1.42,4.79-2.46l1.52-8.61c-.86.76-1.82,1.47-2.88,2.13-1.06.66-2.23,1.2-3.5,1.61-1.27.41-2.7.62-4.27.62-1.8,0-3.38-.38-4.75-1.14-1.37-.76-2.38-1.87-3.03-3.34-.66-1.47-.81-3.21-.45-5.23.36-2.05,1.13-3.8,2.3-5.25,1.17-1.45,2.57-2.56,4.21-3.31,1.63-.76,3.35-1.14,5.15-1.14,1.58,0,2.93.2,4.06.59,1.13.4,2.11.93,2.94,1.61.83.68,1.54,1.4,2.13,2.15l1.52-8.62c-1.14-1.04-2.45-1.86-3.92-2.46-1.47-.6-3.42-.9-5.85-.9Z"/><polygon class="cls-1" points="346.57 172.33 347.73 165.75 325.72 165.75 319.88 198.89 341.89 198.89 343.05 192.31 328.71 192.31 330.05 184.69 343.45 184.69 344.58 178.25 331.19 178.25 332.23 172.33 346.57 172.33"/><path class="cls-1" d="M170.67,137.53c-10.49,0-17.43-2.49-20.65-7.4-3.24-4.94-4.06-12.09-2.44-21.26l8.94-50.72h33.9l-8.34,47.3c-.64,3.61-.61,6.49.09,8.56.74,2.2,2.96,3.31,6.6,3.31,2.14,0,4.07-.43,5.72-1.27,1.67-.85,3.11-2.18,4.27-3.93,1.14-1.73,1.95-3.97,2.43-6.67l8.34-47.3h32.18l-13.67,77.5h-32.18l2.36-13.39-1.49,2.24c-2.79,3.88-6.36,7.06-10.61,9.45-4.24,2.38-9.44,3.59-15.46,3.59Z"/><path class="cls-1" d="M310.3,135.65l9.2-52.16h-30.92l-9.2,52.16h-30.47l9.2-52.16h-11.12l4.47-25.34h11.12l5.23-29.66c.98-5.57,3.07-10.54,6.2-14.76,3.12-4.21,7.4-7.58,12.72-10.03,5.35-2.46,11.87-3.7,19.38-3.7,4.69,0,8.61.56,11.66,1.68,3.05,1.12,5.55,2.45,7.46,3.95,1.76,1.38,3.21,2.62,4.34,3.69l-15.51,22.45c-.81-1.02-1.68-1.88-2.59-2.56-1.14-.86-2.58-1.29-4.28-1.29-1.81,0-3.44.37-4.85,1.1-1.43.74-2.66,1.89-3.66,3.42-.98,1.5-1.67,3.34-2.05,5.47l-3.57,20.25h30.92l5.23-29.66c.98-5.57,3.07-10.54,6.2-14.76,3.12-4.21,7.4-7.58,12.72-10.03,5.35-2.46,11.87-3.7,19.37-3.7,4.69,0,8.62.56,11.66,1.68,3.05,1.12,5.56,2.45,7.46,3.95,1.76,1.39,3.21,2.63,4.34,3.69l-15.51,22.45c-.81-1.02-1.68-1.88-2.59-2.56-1.14-.86-2.58-1.29-4.28-1.29-1.8,0-3.43.37-4.84,1.1-1.42.74-2.66,1.89-3.66,3.42-.98,1.5-1.67,3.34-2.05,5.47l-3.57,20.25h19.67l-4.47,25.34h-19.67l-9.2,52.16h-30.47Z"/><path class="cls-1" d="M7.4,135.65L23.78,42.74c1.54-8.74-.89-17.71-6.64-24.47l-.99-1.16h67.82c39.74,0,52.98,18.67,56.66,27.42,3.68,8.76,4.98,19.48,2.79,31.85-2.16,12.26-7.24,22.95-14.01,31.77-3.01,3.91-6.5,7.51-10.4,10.69l-16.76-19.28c6.15-6.21,10.3-13.98,11.7-21.93,3.39-19.22-9.49-34.85-28.7-34.85h-34.85l-6.14,34.85c-3.39,19.22,9.49,34.85,28.7,34.85,7.95,0,16.2-2.77,23.3-7.82l14.48,19.94c-2.54,1.51-5.03,2.8-7.58,3.93-10.69,4.73-23.08,7.13-36.83,7.13H7.4Z"/><path class="cls-1" d="M86.95,92.58l-21-1.72.54-3.06,15.81-1.26-6.41-8.3-16.56-1.72.54-3.04,11.46-1.15-11.22-14.54,3.12-2.65,12.11,13.78,3.14-11.26h3.04l-1.25,16.86,6.91,7.87,4-15.59h3.06l-2.04,21.31,10.05,11.44-.4.42c-.1.1-2.45,2.54-5.11,4.35l-.48.33-9.3-12.07Z"/></g></svg>