<?xml version="1.0" standalone="no"?>
<!DOCTYPE svg PUBLIC "-//W3C//DTD SVG 20010904//EN"
 "http://www.w3.org/TR/2001/REC-SVG-20010904/DTD/svg10.dtd">
<svg version="1.0" xmlns="http://www.w3.org/2000/svg"
 width="677.000000pt" height="677.000000pt" viewBox="0 0 677.000000 677.000000"
 preserveAspectRatio="xMidYMid meet">
<metadata>
Created by potrace 1.14, written by Peter Selinger 2001-2017
</metadata>
<g transform="translate(0.000000,677.000000) scale(0.100000,-0.100000)"
fill="#000000" stroke="none">
<path d="M3185 6533 c-147 -12 -255 -27 -360 -48 -486 -98 -988 -335 -1385
-654 -120 -96 -395 -369 -484 -481 -255 -320 -479 -759 -571 -1120 -147 -579
-146 -1104 5 -1675 124 -466 355 -901 677 -1276 137 -159 357 -364 509 -472
l51 -37 1784 0 1784 0 116 93 c228 181 378 335 557 572 263 346 430 685 548
1110 80 287 104 492 104 879 0 492 -91 891 -299 1321 -219 451 -497 803 -871
1100 -496 395 -1066 627 -1685 685 -101 9 -385 11 -480 3z m495 -1014 c118
-11 335 -63 461 -109 533 -196 998 -631 1175 -1096 108 -285 138 -443 138
-734 1 -238 -16 -368 -75 -577 -146 -519 -497 -952 -982 -1208 -213 -113 -442
-189 -659 -220 l-48 -6 0 680 c0 375 -2 681 -5 681 -3 0 -28 -11 -55 -25 -99
-50 -232 -67 -342 -44 -43 9 -108 35 -170 67 -5 2 -8 -304 -8 -681 l0 -684
-102 18 c-351 60 -627 186 -933 424 -406 318 -664 792 -730 1345 -60 496 94
1033 407 1417 242 298 589 538 943 655 321 106 602 134 985 97z"/>
<path d="M3257 5216 c-107 -45 -187 -128 -228 -235 -31 -83 -24 -224 14 -300
76 -150 190 -221 354 -221 180 0 324 102 378 268 27 82 18 221 -19 294 -35 70
-114 148 -186 184 -47 24 -69 29 -155 31 -88 3 -107 1 -158 -21z"/>
<path d="M2190 4774 c-182 -62 -304 -203 -336 -388 -27 -155 18 -304 127 -421
122 -130 316 -185 493 -139 97 25 166 64 237 134 128 126 175 292 134 468 -22
92 -60 160 -129 227 -140 136 -342 182 -526 119z"/>
<path d="M4322 4784 c-129 -34 -233 -109 -303 -216 -54 -84 -73 -165 -67 -288
5 -93 8 -107 46 -183 128 -257 419 -358 679 -236 250 118 348 418 220 674 -37
74 -133 170 -207 207 -114 57 -255 73 -368 42z"/>
<path d="M3270 4194 c-139 -36 -279 -141 -337 -251 -118 -223 -90 -459 74
-634 107 -113 241 -169 403 -169 153 0 275 52 385 164 168 170 200 401 86 624
-58 114 -211 231 -347 267 -72 19 -191 18 -264 -1z"/>
<path d="M2193 3580 c-165 -30 -335 -154 -408 -299 -62 -122 -78 -261 -46
-385 104 -396 550 -567 884 -340 87 60 137 119 186 219 51 105 65 168 58 269
-15 233 -167 436 -384 511 -80 28 -210 39 -290 25z"/>
<path d="M4395 3573 c-267 -56 -454 -289 -455 -563 0 -153 52 -273 170 -390
117 -118 234 -165 405 -163 217 3 406 124 504 325 45 91 61 158 61 252 0 258
-200 491 -463 541 -95 18 -131 18 -222 -2z"/>
</g>
</svg>
